<?xml version="1.0" encoding="UTF-8" standalone="no"?>
<!DOCTYPE svg PUBLIC "-//W3C//DTD SVG 20010904//EN"
              "http://www.w3.org/TR/2001/REC-SVG-20010904/DTD/svg10.dtd">

<svg xmlns="http://www.w3.org/2000/svg"
     width="240px" height="250px"
     viewBox="0 0 659 744">
  <path id="Auswahl"
        fill="none" stroke="black" stroke-width="1"
        d="M 128.00,50.01
           C 128.00,50.01 152.00,73.01 152.00,73.01
             152.00,73.01 171.00,91.42 171.00,91.42
             173.69,93.76 183.39,103.80 185.42,104.49
             188.26,105.46 199.56,101.13 203.00,100.14
             203.00,100.14 251.00,85.56 251.00,85.56
             255.62,84.84 262.55,88.32 267.00,89.95
             267.00,89.95 299.00,101.69 299.00,101.69
             302.51,102.94 310.62,106.82 314.00,105.94
             317.07,105.14 320.70,101.21 323.00,99.03
             323.00,99.03 336.00,87.09 336.00,87.09
             336.00,87.09 368.00,57.99 368.00,57.99
             373.50,52.64 387.80,38.92 394.00,36.00
             394.00,36.00 394.00,130.00 394.00,130.00
             394.00,130.00 398.17,177.00 398.17,177.00
             398.17,177.00 399.58,199.00 399.58,199.00
             399.58,199.00 387.33,219.00 387.33,219.00
             387.33,219.00 368.48,246.37 368.48,246.37
             368.48,246.37 349.00,256.00 349.00,256.00
             349.00,256.00 372.58,290.00 372.58,290.00
             372.58,290.00 420.88,357.00 420.88,357.00
             420.88,357.00 438.15,381.00 438.15,381.00
             444.12,389.18 447.98,391.55 448.00,402.00
             448.00,402.00 448.00,569.00 448.00,569.00
             448.00,571.28 447.79,574.76 449.02,576.73
             450.56,579.19 454.38,580.12 457.00,581.00
             457.00,581.00 477.00,587.33 477.00,587.33
             477.00,587.33 573.00,619.00 573.00,619.00
             573.00,619.00 562.00,588.00 562.00,588.00
             568.04,587.93 576.92,596.07 582.00,599.71
             582.00,599.71 622.00,628.63 622.00,628.63
             626.93,632.28 635.09,636.78 638.00,642.00
             638.00,642.00 571.00,642.00 571.00,642.00
             571.00,642.00 554.00,643.04 554.00,643.04
             554.00,643.04 542.00,643.04 542.00,643.04
             542.00,643.04 530.00,644.04 530.00,644.04
             530.00,644.04 518.00,644.04 518.00,644.04
             518.00,644.04 506.00,645.00 506.00,645.00
             506.00,645.00 473.00,646.00 473.00,646.00
             473.00,646.00 458.00,647.04 458.00,647.04
             458.00,647.04 446.00,647.04 446.00,647.04
             446.00,647.04 434.00,648.00 434.00,648.00
             434.00,648.00 395.00,649.00 395.00,649.00
             395.00,649.00 370.00,647.09 370.00,647.09
             370.00,647.09 331.00,644.91 331.00,644.91
             331.00,644.91 303.00,643.00 303.00,643.00
             303.00,643.00 194.00,643.00 194.00,643.00
             194.00,643.00 187.17,579.00 187.17,579.00
             187.17,579.00 168.17,398.00 168.17,398.00
             168.17,398.00 159.17,312.00 159.17,312.00
             159.17,312.00 153.73,260.00 153.73,260.00
             152.69,255.22 146.01,248.01 142.80,244.00
             142.80,244.00 124.39,221.00 124.39,221.00
             121.95,217.99 115.82,211.01 114.31,208.00
             112.01,203.42 112.05,190.45 112.00,185.00
             112.00,185.00 111.00,169.00 111.00,169.00
             111.00,169.00 110.00,151.00 110.00,151.00
             110.00,151.00 109.00,134.00 109.00,134.00
             109.00,134.00 109.00,120.00 109.00,120.00
             109.00,120.00 108.00,103.00 108.00,103.00
             108.00,103.00 108.00,82.00 108.00,82.00
             108.00,82.00 107.00,66.00 107.00,66.00
             107.00,66.00 106.00,32.00 106.00,32.00
             111.71,33.68 123.20,45.34 128.00,50.01 Z
           M 168.00,92.00
           C 168.00,92.00 147.00,72.00 147.00,72.00
             142.14,67.19 137.19,60.93 131.00,58.00
             131.00,58.00 112.00,128.00 112.00,128.00
             112.00,128.00 130.00,122.72 130.00,122.72
             130.00,122.72 170.00,110.58 170.00,110.58
             170.00,110.58 182.00,107.00 182.00,107.00
             179.52,101.86 172.31,96.31 168.00,92.00 Z
           M 350.00,77.83
           C 350.00,77.83 317.00,109.00 317.00,109.00
             317.00,109.00 342.00,117.95 342.00,117.95
             342.00,117.95 391.00,136.00 391.00,136.00
             391.00,136.00 382.33,107.00 382.33,107.00
             382.33,107.00 368.00,63.00 368.00,63.00
             368.00,63.00 350.00,77.83 350.00,77.83 Z
           M 305.00,127.37
           C 305.00,127.37 271.00,101.21 271.00,101.21
             267.89,98.77 256.24,88.92 253.00,89.10
             249.77,89.29 239.90,98.63 237.00,101.13
             237.00,101.13 206.00,127.87 206.00,127.87
             201.11,132.08 194.84,136.13 192.00,142.00
             192.00,142.00 211.00,141.00 211.00,141.00
             211.00,141.00 242.00,141.00 242.00,141.00
             242.00,141.00 292.00,141.00 292.00,141.00
             292.00,141.00 322.00,142.00 322.00,142.00
             319.40,137.48 309.53,130.79 305.00,127.37 Z
           M 246.00,89.00
           C 246.00,89.00 247.00,90.00 247.00,90.00
             247.00,90.00 247.00,89.00 247.00,89.00
             247.00,89.00 246.00,89.00 246.00,89.00 Z
           M 187.00,107.00
           C 187.00,107.00 190.00,139.00 190.00,139.00
             190.00,139.00 220.00,113.42 220.00,113.42
             220.00,113.42 246.00,90.00 246.00,90.00
             246.00,90.00 187.00,107.00 187.00,107.00 Z
           M 278.00,104.35
           C 278.00,104.35 308.00,127.37 308.00,127.37
             312.81,131.00 317.53,135.53 323.00,138.00
             323.00,138.00 317.33,120.00 317.33,120.00
             317.33,120.00 313.30,110.51 313.30,110.51
             313.30,110.51 298.00,103.95 298.00,103.95
             298.00,103.95 263.00,91.00 263.00,91.00
             264.15,94.85 274.40,101.58 278.00,104.35 Z
           M 137.00,123.00
           C 137.00,123.00 117.00,130.00 117.00,130.00
             117.00,130.00 187.00,141.00 187.00,141.00
             187.00,141.00 184.00,109.00 184.00,109.00
             184.00,109.00 137.00,123.00 137.00,123.00 Z
           M 326.00,141.00
           C 326.00,141.00 386.00,138.00 386.00,138.00
             382.87,133.91 372.07,131.34 367.00,129.42
             367.00,129.42 332.00,116.42 332.00,116.42
             332.00,116.42 318.00,111.00 318.00,111.00
             316.94,116.81 324.39,133.96 326.00,141.00 Z
           M 112.00,131.00
           C 112.00,131.00 111.00,132.00 111.00,132.00
             111.00,132.00 113.00,161.00 113.00,161.00
             113.00,161.00 115.00,203.00 115.00,203.00
             115.00,203.00 160.00,165.08 160.00,165.08
             165.31,160.64 181.16,148.05 184.00,143.00
             184.00,143.00 112.00,131.00 112.00,131.00 Z
           M 362.00,141.09
           C 362.00,141.09 330.00,143.00 330.00,143.00
             330.00,143.00 355.00,163.42 355.00,163.42
             355.00,163.42 380.00,182.79 380.00,182.79
             380.00,182.79 398.00,195.00 398.00,195.00
             398.00,195.00 392.00,139.00 392.00,139.00
             392.00,139.00 362.00,141.09 362.00,141.09 Z
           M 191.00,144.00
           C 191.00,144.00 207.40,188.00 207.40,188.00
             207.40,188.00 230.40,248.00 230.40,248.00
             230.40,248.00 238.00,268.00 238.00,268.00
             240.79,274.99 240.75,278.84 249.00,279.00
             251.66,279.04 257.46,279.35 259.61,277.98
             261.86,276.54 264.03,271.47 265.24,269.00
             265.24,269.00 275.22,248.00 275.22,248.00
             275.22,248.00 302.78,189.00 302.78,189.00
             302.78,189.00 324.00,144.00 324.00,144.00
             324.00,144.00 191.00,144.00 191.00,144.00 Z
           M 169.00,159.73
           C 169.00,159.73 116.00,205.00 116.00,205.00
             118.91,211.81 136.11,231.95 141.80,239.00
             145.41,243.46 150.07,250.31 155.00,253.00
             155.00,253.00 164.28,221.00 164.28,221.00
             164.28,221.00 179.72,169.00 179.72,169.00
             179.72,169.00 187.00,145.00 187.00,145.00
             187.00,145.00 169.00,159.73 169.00,159.73 Z
           M 311.75,175.00
           C 311.75,175.00 276.75,249.00 276.75,249.00
             276.75,249.00 267.75,268.00 267.75,268.00
             267.75,268.00 263.43,279.00 263.43,279.00
             263.43,279.00 270.00,292.00 270.00,292.00
             270.00,292.00 292.00,281.26 292.00,281.26
             292.00,281.26 329.00,263.74 329.00,263.74
             329.00,263.74 366.00,246.00 366.00,246.00
             366.00,246.00 350.20,206.00 350.20,206.00
             350.20,206.00 326.00,146.00 326.00,146.00
             326.00,146.00 311.75,175.00 311.75,175.00 Z
           M 332.40,156.00
           C 332.40,156.00 339.60,174.00 339.60,174.00
             339.60,174.00 367.00,243.00 367.00,243.00
             367.00,243.00 369.00,243.00 369.00,243.00
             369.00,243.00 397.00,198.00 397.00,198.00
             397.00,198.00 330.00,146.00 330.00,146.00
             330.00,146.00 332.40,156.00 332.40,156.00 Z
           M 176.28,188.00
           C 176.28,188.00 163.98,229.00 163.98,229.00
             163.98,229.00 156.00,256.00 156.00,256.00
             156.00,256.00 178.00,266.74 178.00,266.74
             178.00,266.74 204.00,279.25 204.00,279.25
             204.00,279.25 232.00,292.00 232.00,292.00
             232.00,292.00 239.31,280.00 239.31,280.00
             239.31,280.00 236.60,270.00 236.60,270.00
             236.60,270.00 228.60,249.00 228.60,249.00
             228.60,249.00 202.42,181.00 202.42,181.00
             202.42,181.00 189.00,147.00 189.00,147.00
             189.00,147.00 176.28,188.00 176.28,188.00 Z
           M 309.10,230.36
           C 316.47,236.17 327.89,236.42 336.00,232.18
             336.00,232.18 345.00,226.00 345.00,226.00
             341.81,245.12 311.81,242.33 304.85,230.98
             303.22,228.32 303.15,226.00 303.00,223.00
             305.01,225.48 306.56,228.36 309.10,230.36 Z
           M 212.00,224.00
           C 211.81,227.46 211.62,229.95 209.35,232.81
             202.56,241.38 181.17,240.79 173.19,234.21
             169.84,231.46 169.24,228.92 168.00,225.00
             168.00,225.00 179.00,232.09 179.00,232.09
             189.22,236.85 205.73,236.40 210.00,224.00
             210.00,224.00 212.00,224.00 212.00,224.00 Z
           M 511.00,228.00
           C 511.00,228.00 495.00,250.00 495.00,250.00
             495.00,250.00 493.00,250.00 493.00,250.00
             493.00,250.00 476.00,228.00 476.00,228.00
             476.00,228.00 511.00,228.00 511.00,228.00 Z
           M 160.12,272.00
           C 160.12,272.00 167.12,298.00 167.12,298.00
             167.12,298.00 186.88,371.00 186.88,371.00
             186.88,371.00 194.00,398.00 194.00,398.00
             199.17,394.90 206.54,378.95 209.86,373.00
             209.86,373.00 234.42,329.00 234.42,329.00
             238.18,322.37 246.09,309.69 248.00,303.00
             248.00,303.00 221.00,289.75 221.00,289.75
             221.00,289.75 158.00,259.00 158.00,259.00
             156.80,263.29 159.02,267.83 160.12,272.00 Z
           M 317.00,271.74
           C 317.00,271.74 274.00,292.30 274.00,292.30
             274.00,292.30 252.00,303.00 252.00,303.00
             252.00,303.00 287.14,367.00 287.14,367.00
             287.14,367.00 306.00,399.00 306.00,399.00
             306.00,399.00 328.15,319.00 328.15,319.00
             328.15,319.00 344.00,259.00 344.00,259.00
             344.00,259.00 317.00,271.74 317.00,271.74 Z
           M 343.92,291.00
           C 343.92,291.00 341.17,315.00 341.17,315.00
             341.17,315.00 338.72,340.00 338.72,340.00
             338.72,340.00 330.83,415.00 330.83,415.00
             330.83,415.00 318.83,527.00 318.83,527.00
             318.83,527.00 310.83,603.00 310.83,603.00
             310.83,603.00 308.00,635.00 308.00,635.00
             308.00,635.00 321.42,612.00 321.42,612.00
             321.42,612.00 344.85,571.00 344.85,571.00
             344.85,571.00 409.00,459.00 409.00,459.00
             409.00,459.00 435.28,413.00 435.28,413.00
             437.33,409.40 444.42,398.59 444.05,395.00
             443.74,392.00 438.57,385.62 436.63,383.00
             436.63,383.00 418.00,357.00 418.00,357.00
             418.00,357.00 348.00,260.00 348.00,260.00
             348.00,260.00 343.92,291.00 343.92,291.00 Z
           M 160.72,303.00
           C 160.72,303.00 166.84,361.00 166.84,361.00
             166.84,361.00 185.72,541.00 185.72,541.00
             185.72,541.00 190.84,590.00 190.84,590.00
             191.49,596.14 191.90,609.08 194.00,614.00
             194.00,614.00 194.00,498.00 194.00,498.00
             194.00,498.00 193.00,483.00 193.00,483.00
             193.00,483.00 193.00,408.00 193.00,408.00
             192.98,396.21 186.74,377.91 183.42,366.00
             183.42,366.00 167.12,306.00 167.12,306.00
             167.12,306.00 159.00,274.00 159.00,274.00
             157.06,278.91 159.96,296.83 160.72,303.00 Z
           M 336.63,296.00
           C 336.63,296.00 326.58,333.00 326.58,333.00
             326.58,333.00 313.12,382.00 313.12,382.00
             310.60,391.55 307.02,401.05 307.00,411.00
             307.00,411.00 307.00,526.00 307.00,526.00
             307.00,526.00 307.00,585.00 307.00,585.00
             307.00,591.02 306.12,607.26 308.00,612.00
             308.00,612.00 314.83,544.00 314.83,544.00
             314.83,544.00 333.17,370.00 333.17,370.00
             333.17,370.00 340.17,304.00 340.17,304.00
             340.17,304.00 343.00,275.00 343.00,275.00
             340.80,278.70 337.90,291.13 336.63,296.00 Z
           M 477.00,282.00
           C 477.00,282.00 466.00,297.00 466.00,297.00
             460.69,294.27 455.42,286.93 452.00,282.00
             452.00,282.00 477.00,282.00 477.00,282.00 Z
           M 534.00,288.00
           C 534.00,288.00 555.00,287.00 555.00,287.00
             553.48,292.22 550.55,294.82 547.20,299.00
             543.13,304.08 538.84,311.10 533.00,314.00
             533.00,314.00 512.00,287.00 512.00,287.00
             512.00,287.00 534.00,288.00 534.00,288.00 Z
           M 236.14,330.00
           C 236.14,330.00 212.70,372.00 212.70,372.00
             212.70,372.00 196.58,402.00 196.58,402.00
             196.58,402.00 200.00,419.00 200.00,419.00
             200.00,419.00 209.58,454.00 209.58,454.00
             209.58,454.00 236.58,553.00 236.58,553.00
             236.58,553.00 244.42,582.00 244.42,582.00
             244.42,582.00 249.00,596.00 249.00,596.00
             249.00,596.00 249.00,308.00 249.00,308.00
             249.00,308.00 236.14,330.00 236.14,330.00 Z
           M 252.00,329.00
           C 252.00,329.00 252.00,373.00 252.00,373.00
             252.00,373.00 252.00,511.00 252.00,511.00
             252.00,511.00 252.00,570.00 252.00,570.00
             252.00,570.00 252.00,585.00 252.00,585.00
             252.00,585.00 252.00,596.00 252.00,596.00
             252.00,596.00 264.42,552.00 264.42,552.00
             264.42,552.00 288.42,464.00 288.42,464.00
             288.42,464.00 299.42,424.00 299.42,424.00
             299.42,424.00 304.31,404.00 304.31,404.00
             304.31,404.00 299.86,394.00 299.86,394.00
             299.86,394.00 289.86,376.00 289.86,376.00
             289.86,376.00 264.86,331.00 264.86,331.00
             264.86,331.00 252.00,309.00 252.00,309.00
             252.00,309.00 252.00,329.00 252.00,329.00 Z
           M 444.00,401.00
           C 444.00,401.00 412.28,457.00 412.28,457.00
             412.28,457.00 343.14,578.00 343.14,578.00
             343.14,578.00 320.15,618.00 320.15,618.00
             320.15,618.00 309.00,639.00 309.00,639.00
             309.00,639.00 357.00,617.86 357.00,617.86
             357.00,617.86 415.00,592.23 415.00,592.23
             415.00,592.23 436.00,582.86 436.00,582.86
             436.00,582.86 444.98,577.61 444.98,577.61
             444.98,577.61 445.98,570.00 445.98,570.00
             445.98,570.00 445.98,446.97 445.98,446.97
             445.98,446.97 445.98,432.00 445.98,432.00
             445.98,432.00 445.04,418.00 445.04,418.00
             445.04,418.00 446.00,401.00 446.00,401.00
             446.00,401.00 444.00,401.00 444.00,401.00 Z
           M 196.00,433.00
           C 196.00,433.00 196.00,479.00 196.00,479.00
             196.00,479.00 196.00,639.00 196.00,639.00
             203.38,636.67 226.93,621.01 235.00,615.95
             237.78,614.21 246.65,609.37 247.80,606.79
             248.96,604.17 245.87,595.04 245.00,592.00
             245.00,592.00 235.14,556.00 235.14,556.00
             235.14,556.00 208.42,458.00 208.42,458.00
             208.42,458.00 196.00,413.00 196.00,413.00
             193.90,418.29 195.99,426.83 196.00,433.00 Z
           M 300.29,429.00
           C 300.29,429.00 291.58,461.00 291.58,461.00
             291.58,461.00 276.58,516.00 276.58,516.00
             276.58,516.00 264.13,561.00 264.13,561.00
             264.13,561.00 255.12,594.00 255.12,594.00
             255.12,594.00 252.66,606.62 252.66,606.62
             252.66,606.62 266.00,616.20 266.00,616.20
             266.00,616.20 304.00,639.00 304.00,639.00
             304.00,639.00 304.00,530.00 304.00,530.00
             304.00,530.00 305.00,515.00 305.00,515.00
             305.00,515.00 305.00,415.00 305.00,415.00
             305.00,415.00 300.29,429.00 300.29,429.00 Z
           M 527.00,622.69
           C 527.00,622.69 482.00,598.75 482.00,598.75
             482.00,598.75 447.00,581.00 447.00,581.00
             447.00,581.00 416.33,626.00 416.33,626.00
             416.33,626.00 403.00,647.00 403.00,647.00
             403.00,647.00 425.00,646.00 425.00,646.00
             425.00,646.00 448.00,645.00 448.00,645.00
             448.00,645.00 468.00,644.00 468.00,644.00
             468.00,644.00 489.00,643.00 489.00,643.00
             489.00,643.00 522.00,642.00 522.00,642.00
             522.00,642.00 537.00,641.00 537.00,641.00
             543.41,640.99 552.06,641.43 558.00,639.00
             558.00,639.00 527.00,622.69 527.00,622.69 Z
           M 357.00,620.14
           C 357.00,620.14 329.00,632.58 329.00,632.58
             329.00,632.58 312.00,641.00 312.00,641.00
             312.00,641.00 321.00,642.00 321.00,642.00
             321.00,642.00 330.00,642.00 330.00,642.00
             330.00,642.00 373.99,645.08 373.99,645.08
             373.99,645.08 390.00,646.30 390.00,646.30
             392.57,646.41 396.28,647.42 398.70,646.30
             402.26,644.96 408.85,633.64 411.42,630.00
             411.42,630.00 429.72,603.00 429.72,603.00
             433.89,597.03 440.48,588.59 443.00,582.00
             443.00,582.00 357.00,620.14 357.00,620.14 Z
           M 462.00,586.00
           C 462.00,586.00 495.00,603.31 495.00,603.31
             495.00,603.31 538.00,626.25 538.00,626.25
             538.00,626.25 564.00,639.83 564.00,639.83
             566.16,640.09 568.76,640.00 571.00,639.84
             571.00,639.84 595.00,639.84 595.00,639.84
             601.45,640.00 622.27,640.88 627.00,639.00
             627.00,639.00 463.00,585.00 463.00,585.00
             463.00,585.00 462.00,586.00 462.00,586.00 Z
           M 119.00,606.00
           C 119.00,606.00 98.00,633.00 98.00,633.00
             92.42,628.81 78.94,612.20 75.00,606.00
             75.00,606.00 119.00,606.00 119.00,606.00 Z
           M 62.00,632.00
           C 59.58,637.66 54.91,643.31 50.00,647.00
             50.00,647.00 38.00,632.00 38.00,632.00
             38.00,632.00 62.00,632.00 62.00,632.00 Z
           M 139.00,699.00
           C 139.00,699.00 126.80,715.00 126.80,715.00
             126.80,715.00 120.93,719.80 120.93,719.80
             120.93,719.80 114.75,715.00 114.75,715.00
             114.75,715.00 102.00,699.00 102.00,699.00
             102.00,699.00 139.00,699.00 139.00,699.00 Z" />
</svg>
