<?xml version="1.0" encoding="UTF-8" standalone="no"?>
<!DOCTYPE svg PUBLIC "-//W3C//DTD SVG 20010904//EN"
              "http://www.w3.org/TR/2001/REC-SVG-20010904/DTD/svg10.dtd">

<svg xmlns="http://www.w3.org/2000/svg"
     width="1.64444in" height="1.65556in"
     viewBox="0 0 148 149">
  <path id="Auswahl"
        fill="none" stroke="black" stroke-width="1"
        d="M 61.98,12.67
           C 55.13,14.15 50.50,5.52 58.11,0.75
             68.68,-1.32 69.15,11.11 61.98,12.67 Z
           M 40.00,21.00
           C 39.98,23.19 40.10,25.92 38.98,27.87
             37.58,30.29 34.77,31.63 32.02,30.92
             29.91,30.39 28.39,28.94 27.67,26.95
             26.61,24.46 26.70,11.53 27.67,9.06
             28.56,7.10 28.86,7.28 30.23,6.02
             41.55,2.04 40.05,14.00 40.00,21.00 Z
           M 121.00,21.00
           C 121.00,21.00 121.00,72.00 121.00,72.00
             121.01,75.39 120.74,78.99 122.74,81.94
             126.17,87.01 131.02,86.22 133.69,80.98
             135.18,78.05 134.99,74.22 135.00,71.00
             135.01,67.21 134.36,56.18 136.17,53.39
             138.89,49.22 144.50,49.98 146.83,54.11
             148.21,56.56 148.00,60.23 148.00,63.00
             148.03,79.26 147.75,89.58 141.13,105.00
             129.15,132.88 101.83,149.35 72.00,149.00
             41.47,148.64 14.58,126.29 5.00,98.00
             0.64,85.11 0.76,77.32 1.00,64.00
             1.09,59.09 2.77,54.08 8.96,55.47
             15.92,57.04 13.99,69.47 14.00,75.00
             14.01,77.94 13.79,81.26 15.31,83.92
             17.98,88.51 23.34,88.76 25.98,83.92
             27.19,81.73 27.00,78.47 27.00,76.00
             27.00,76.00 27.00,54.00 27.00,54.00
             27.04,50.86 27.18,46.93 29.09,44.28
             31.93,40.33 37.49,41.08 39.83,45.13
             41.21,47.53 41.00,51.28 41.00,54.00
             41.00,54.00 41.00,113.00 41.00,113.00
             41.06,117.46 42.57,125.24 48.98,123.34
             54.14,121.82 53.99,116.31 54.00,112.00
             54.00,112.00 54.00,77.00 54.00,77.00
             54.01,72.45 53.74,66.46 59.04,64.82
             60.64,64.06 62.41,64.22 63.89,64.82
             67.73,67.11 67.94,71.16 68.00,75.00
             68.00,75.00 68.00,125.00 68.00,125.00
             68.00,127.67 67.78,131.45 69.17,133.79
             72.04,138.58 77.40,137.48 79.83,132.96
             81.21,130.38 81.00,126.86 81.00,124.00
             81.00,124.00 81.00,49.00 81.00,49.00
             81.00,46.01 80.69,41.84 82.74,39.43
             85.31,36.41 93.91,34.20 94.00,47.00
             94.00,47.00 94.00,109.00 94.00,109.00
             94.00,111.80 93.87,115.38 94.89,118.00
             96.84,123.01 102.22,125.95 105.99,120.77
             108.23,117.71 107.99,113.60 108.00,110.00
             108.00,110.00 108.00,39.00 108.00,39.00
             108.00,35.05 107.56,18.63 108.60,16.06
             109.40,14.06 109.76,14.25 111.15,13.02
             118.32,10.57 120.87,14.20 121.00,21.00 Z
           M 67.00,43.00
           C 66.99,45.05 67.07,48.01 66.26,49.89
             65.02,52.79 62.11,54.22 59.04,53.53
             54.25,52.44 54.06,48.01 54.00,44.00
             53.91,37.52 51.95,27.83 58.11,23.87
             69.60,21.23 67.04,35.93 67.00,43.00 Z" />
</svg>
