<?xml version="1.0" encoding="UTF-8" standalone="no"?>
<!DOCTYPE svg PUBLIC "-//W3C//DTD SVG 20010904//EN"
              "http://www.w3.org/TR/2001/REC-SVG-20010904/DTD/svg10.dtd">

<svg xmlns="http://www.w3.org/2000/svg"
     width="0.533333in" height="0.4in"
     viewBox="0 0 320 240">
  <path id="Selection"
        fill="none" stroke="black" stroke-width="1"
        d="M 82.00,55.00
           C 82.00,55.00 82.00,60.00 82.00,60.00
             82.00,60.00 84.00,63.00 84.00,63.00
             84.00,63.00 73.00,62.00 73.00,62.00
             73.00,62.00 74.00,60.00 74.00,60.00
             74.00,60.00 75.00,60.00 75.00,60.00
             75.00,60.00 73.00,56.00 73.00,56.00
             68.78,62.61 69.55,62.92 61.00,63.00
             61.00,63.00 63.00,58.00 63.00,58.00
             63.00,58.00 62.00,57.00 62.00,57.00
             57.76,60.87 47.20,71.59 46.28,77.00
             45.95,79.00 46.44,79.34 47.00,81.00
             47.00,81.00 43.00,82.00 43.00,82.00
             43.00,82.00 45.76,87.09 45.76,87.09
             45.76,87.09 45.76,101.00 45.76,101.00
             34.32,100.01 45.64,110.58 49.00,113.00
             49.00,113.00 50.00,109.00 50.00,109.00
             50.00,109.00 52.00,109.00 52.00,109.00
             52.00,109.00 54.00,118.00 54.00,118.00
             54.00,118.00 51.00,117.00 51.00,117.00
             51.00,117.00 54.00,119.00 54.00,119.00
             54.00,119.00 54.00,127.00 54.00,127.00
             49.88,123.26 50.54,121.99 49.00,117.00
             47.30,121.34 49.09,129.27 52.43,132.57
             56.32,136.42 63.22,135.07 67.99,137.22
             73.40,139.67 81.02,146.83 85.92,150.49
             85.92,150.49 92.59,154.92 92.59,154.92
             95.16,156.73 102.41,161.12 103.70,163.22
             107.17,168.88 106.51,180.88 116.00,185.54
             120.29,187.65 130.84,185.05 135.00,182.87
             138.35,181.11 139.94,178.64 144.00,178.18
             150.81,177.42 157.69,181.67 163.00,181.54
             166.17,181.46 168.28,180.32 171.17,179.80
             171.17,179.80 198.00,174.35 198.00,174.35
             198.00,174.35 206.00,171.13 206.00,171.13
             213.63,168.56 221.93,166.87 229.00,163.00
             224.33,162.16 214.84,166.44 210.00,167.82
             208.06,168.62 203.66,170.45 202.59,167.82
             202.01,166.16 203.60,161.80 204.00,160.00
             200.77,160.26 186.51,162.78 184.27,164.17
             182.08,165.53 181.57,167.63 179.59,169.07
             177.32,170.72 167.86,172.95 165.31,171.69
             163.22,170.66 159.56,162.68 164.16,160.60
             164.16,160.60 177.83,158.76 177.83,158.76
             180.66,159.00 182.27,160.65 190.00,159.83
             190.00,159.83 204.00,157.24 204.00,157.24
             204.00,157.24 213.00,154.77 213.00,154.77
             215.20,154.25 215.94,154.55 218.00,154.77
             218.00,154.77 222.00,151.00 222.00,151.00
             222.00,151.00 224.00,151.00 224.00,151.00
             225.43,152.68 225.43,151.66 226.00,150.00
             226.00,150.00 228.00,152.00 228.00,152.00
             228.00,152.00 233.00,149.00 233.00,149.00
             233.00,149.00 233.00,151.00 233.00,151.00
             233.00,151.00 240.00,150.00 240.00,150.00
             240.00,150.00 238.00,159.00 238.00,159.00
             243.20,157.52 247.38,155.96 250.00,151.00
             250.00,151.00 243.00,154.00 243.00,154.00
             246.29,146.96 253.72,143.12 261.00,141.00
             258.97,129.20 248.14,137.87 244.12,137.09
             239.57,136.20 240.81,129.46 243.00,127.00
             237.36,124.94 234.09,128.16 229.00,129.70
             229.00,129.70 204.00,135.21 204.00,135.21
             199.50,136.15 193.80,135.40 192.00,140.00
             192.00,140.00 205.00,138.00 205.00,138.00
             205.00,138.00 192.00,142.00 192.00,142.00
             192.00,142.00 192.00,144.00 192.00,144.00
             192.00,144.00 205.00,142.00 205.00,142.00
             201.51,144.88 196.43,145.47 192.00,146.00
             192.00,146.00 193.00,149.00 193.00,149.00
             193.00,149.00 192.00,152.00 192.00,152.00
             184.70,153.37 166.45,157.69 160.00,156.79
             156.12,156.25 146.10,152.04 142.00,150.40
             138.55,149.02 131.98,146.71 129.39,144.36
             129.39,144.36 118.00,126.00 118.00,126.00
             118.00,126.00 128.00,128.00 128.00,128.00
             128.00,128.00 114.00,120.00 114.00,120.00
             121.87,119.00 126.45,124.17 133.00,127.12
             133.00,127.12 148.00,131.36 148.00,131.36
             151.74,132.62 156.51,135.31 160.00,135.74
             168.56,136.79 183.26,132.56 192.00,131.08
             209.11,128.19 234.87,126.57 250.00,121.00
             250.00,121.00 230.00,117.83 230.00,117.83
             230.00,117.83 200.00,115.01 200.00,115.01
             200.00,115.01 186.00,114.00 186.00,114.00
             186.00,114.00 178.17,113.29 178.17,113.29
             175.40,113.60 171.81,116.19 164.00,115.03
             164.00,115.03 135.00,104.00 135.00,104.00
             145.92,99.22 149.15,101.65 160.00,100.91
             160.00,100.91 171.00,99.28 171.00,99.28
             174.94,99.24 176.84,100.23 181.00,99.28
             184.01,98.20 186.35,96.59 189.00,95.00
             188.22,85.48 186.47,89.30 180.00,83.86
             174.04,78.84 168.58,72.51 161.00,70.00
             163.84,79.26 175.38,81.38 179.00,92.00
             179.00,92.00 166.00,88.79 166.00,88.79
             166.00,88.79 151.00,86.00 151.00,86.00
             150.50,80.46 148.78,72.97 143.00,71.00
             143.96,76.12 146.39,83.25 150.00,87.00
             144.18,87.94 134.43,86.05 132.00,93.00
             132.00,93.00 118.00,95.00 118.00,95.00
             118.00,95.00 117.00,89.00 117.00,89.00
             117.00,89.00 115.00,89.00 115.00,89.00
             115.00,89.00 115.00,95.00 115.00,95.00
             115.00,95.00 105.00,98.00 105.00,98.00
             105.00,98.00 102.41,86.09 102.41,86.09
             102.41,86.09 106.43,79.68 106.43,79.68
             106.43,79.68 107.00,71.00 107.00,71.00
             107.00,71.00 99.00,73.00 99.00,73.00
             99.00,73.00 99.00,67.21 99.00,67.21
             102.68,67.66 113.36,68.92 116.59,67.21
             118.04,66.76 118.16,66.12 119.00,65.00
             113.06,65.00 95.56,65.82 91.05,63.57
             86.19,61.14 88.00,58.20 82.00,55.00 Z
           M 119.00,57.00
           C 119.00,57.00 122.00,62.00 122.00,62.00
             122.00,62.00 122.00,57.00 122.00,57.00
             122.00,57.00 119.00,57.00 119.00,57.00 Z
           M 134.00,58.00
           C 135.20,61.52 135.61,61.56 139.00,63.00
             139.00,63.00 134.00,58.00 134.00,58.00 Z
           M 63.00,66.00
           C 63.00,66.00 54.00,85.00 54.00,85.00
             54.00,85.00 50.00,84.00 50.00,84.00
             50.96,74.48 51.12,66.15 63.00,66.00 Z
           M 130.00,65.00
           C 130.00,65.00 133.11,66.71 133.11,66.71
             133.11,66.71 153.00,68.00 153.00,68.00
             147.28,63.71 136.91,65.00 130.00,65.00 Z
           M 69.00,90.00
           C 58.21,89.36 65.33,85.78 59.00,79.00
             59.00,79.00 59.00,77.00 59.00,77.00
             66.45,72.48 66.03,68.41 71.01,67.33
             74.66,66.54 77.04,68.15 75.98,72.02
             74.93,75.86 71.27,80.05 69.00,90.00 Z
           M 92.00,77.00
           C 92.00,77.00 88.00,77.00 88.00,77.00
             93.55,82.19 93.94,83.50 95.00,91.00
             95.00,91.00 72.00,93.00 72.00,93.00
             72.00,93.00 76.00,80.00 76.00,80.00
             76.00,80.00 85.00,85.00 85.00,85.00
             85.00,85.00 85.00,79.00 85.00,79.00
             73.77,77.02 86.92,63.18 91.26,72.25
             91.96,73.71 91.91,75.43 92.00,77.00 Z
           M 124.00,70.00
           C 124.24,74.00 123.96,75.54 128.00,77.00
             127.66,72.86 127.71,72.09 124.00,70.00 Z
           M 120.00,77.00
           C 120.00,77.00 119.00,86.00 119.00,86.00
             122.73,83.50 121.98,81.15 122.00,77.00
             122.00,77.00 120.00,77.00 120.00,77.00 Z
           M 93.00,93.00
           C 92.63,97.54 92.49,98.57 88.00,100.00
             88.00,100.00 88.00,93.00 88.00,93.00
             88.00,93.00 93.00,93.00 93.00,93.00 Z
           M 127.00,95.00
           C 127.00,95.00 127.00,97.00 127.00,97.00
             127.00,97.00 122.00,97.00 122.00,97.00
             122.00,97.00 127.00,95.00 127.00,95.00 Z
           M 69.00,105.00
           C 71.50,109.30 74.67,110.09 79.00,112.25
             79.00,112.25 100.00,122.00 100.00,122.00
             100.00,122.00 76.00,109.00 76.00,109.00
             81.76,107.44 88.96,112.31 94.00,114.78
             102.61,119.01 103.84,114.83 111.00,124.00
             111.00,124.00 103.00,124.00 103.00,124.00
             102.53,126.44 101.97,130.24 98.79,130.44
             96.35,130.59 87.51,125.43 85.00,124.00
             85.00,124.00 67.00,114.25 67.00,114.25
             64.32,112.85 57.61,109.47 55.81,107.37
             54.44,105.77 53.68,103.00 53.00,101.00
             53.00,101.00 69.00,105.00 69.00,105.00 Z
           M 141.00,109.00
           C 141.00,109.00 141.00,111.00 141.00,111.00
             141.00,111.00 124.00,109.00 124.00,109.00
             127.85,103.25 135.92,106.86 141.00,109.00 Z
           M 63.00,117.00
           C 63.00,117.00 88.00,131.85 88.00,131.85
             92.65,134.53 97.24,136.65 99.00,142.00
             92.31,139.12 77.49,129.20 71.00,124.84
             68.14,122.91 63.06,120.82 63.00,117.00 Z
           M 219.11,143.00
           C 219.11,143.00 219.11,139.02 219.11,139.02
             221.18,128.74 230.26,138.87 222.72,142.40
             221.56,142.95 220.25,142.90 219.11,143.00 Z
           M 211.00,137.00
           C 211.00,137.00 211.00,139.00 211.00,139.00
             211.00,139.00 207.00,139.00 207.00,139.00
             207.00,139.00 207.00,137.00 207.00,137.00
             207.00,137.00 211.00,137.00 211.00,137.00 Z
           M 118.89,161.00
           C 126.42,163.60 122.20,175.18 118.89,176.34
             115.14,177.58 111.96,173.76 110.41,171.00
             107.46,165.71 104.80,151.44 109.01,146.43
             111.86,143.04 115.33,145.33 117.58,148.06
             121.55,152.85 120.93,155.79 118.89,161.00 Z
           M 236.00,148.00
           C 236.00,148.00 236.00,149.00 236.00,149.00
             236.00,149.00 235.00,148.00 235.00,148.00
             235.00,148.00 236.00,148.00 236.00,148.00 Z
           M 113.00,149.00
           C 113.00,149.00 113.00,150.00 113.00,150.00
             113.00,150.00 114.00,149.00 114.00,149.00
             114.00,149.00 113.00,149.00 113.00,149.00 Z
           M 112.00,155.00
           C 112.05,159.99 111.57,165.06 117.00,167.00
             117.00,167.00 115.00,155.00 115.00,155.00
             115.00,155.00 112.00,155.00 112.00,155.00 Z
           M 119.00,163.00
           C 119.00,163.00 120.00,167.00 120.00,167.00
             120.00,167.00 121.00,163.00 121.00,163.00
             121.00,163.00 119.00,163.00 119.00,163.00 Z
           M 195.00,169.00
           C 195.00,169.00 193.00,172.00 193.00,172.00
             193.00,172.00 192.00,171.00 192.00,171.00
             192.00,171.00 193.00,169.00 193.00,169.00
             193.00,169.00 195.00,169.00 195.00,169.00 Z" />
</svg>
