<?xml version="1.0" encoding="UTF-8" standalone="no"?>
<!DOCTYPE svg PUBLIC "-//W3C//DTD SVG 20010904//EN"
        "http://www.w3.org/TR/2001/REC-SVG-20010904/DTD/svg10.dtd">

<svg xmlns="http://www.w3.org/2000/svg"
     width="13.8889in" height="6.94444in"
     viewBox="0 0 1000 500">
  <path id="Auswahl"
        fill="none" stroke="black" stroke-width="1"
        d="M 243.98,202.51 249.98,200.51 255.78,193.12 251.26,186.02
             242.49,182.21 215.89,173.43 212.79,151.00
             216.88,140.83 233.45,134.39 246.00,136.61
             248.81,137.11 256.32,138.32 257.98,140.56
             259.36,142.43 259.00,147.62 259.00,150.00
             250.41,146.36 240.41,141.79 231.00,145.26
             224.84,147.53 219.63,154.64 223.74,160.96
             231.08,170.24 254.89,174.88 261.44,182.00
             262.39,184.49 261.52,199.00
             254.89,209.76 237.53,213.53 225.00,213.00
             221.94,210.38 214.83,209.07 213.02,206.49
             211.64,204.53 212.00,199.45 212.00,197.00
             222.03,201.31 231.78,206.43 243.00,202.78
           M 50.00,138.00 59.32,164.00 73.00,199.00
             88.32,157.00 89.55,153.68 93.68,141.49
             95.70,139.60 97.97,137.46 103.00,138.00 106.00,138.00
             106.00,138.00 84.81,194.00 84.81,194.00
             82.73,199.47 80.79,210.38 73.98,210.94
             64.85,211.70 65.41,207.12 60.60,195.00
             39.00,138.00 50.00,138.00
           M 120.37,138.13 119.47,139.38 122.87,153.00
             125.39,163.08 130.72,190.53 135.00,198.00
             149.00,138.00 161.00,138.00 168.63,170.00 176.00,199.00 186.13,157.00
             186.90,153.91 189.61,141.35 191.14,139.57
             193.00,137.40 198.31,138.00 201.00,138.00
             183.00,211.00 170.00,211.00 156.00,150.00
             154.00,150.00 140.00,211.00 127.00,211.00
             109.00,138.00 113.00,138.00" />
</svg>
