<?xml version="1.0" encoding="UTF-8" standalone="no"?>
<!DOCTYPE svg PUBLIC "-//W3C//DTD SVG 20010904//EN"
              "http://www.w3.org/TR/2001/REC-SVG-20010904/DTD/svg10.dtd">

<svg xmlns="http://www.w3.org/2000/svg"
     width="8.88889in" height="5.55556in"
     viewBox="0 0 640 400">
  <path id="Pfad"
        fill="none" stroke="black" stroke-width="1"
        d="M 148.69,233.00 157.00,211.00 153.78,211.00
             147.02,228.97 140.22,211.00 137.00,211.00 145.33,233.00 148.69,233.00
	       M 164.55,233.00 168.30,233.00 173.02,213.91
	         177.69,233.00 181.44,233.00 187.00,211.00
	         183.91,211.00 179.05,230.19 174.36,211.00
	         171.67,211.00 166.94,230.19 162.09,211.00
	         159.00,211.00 164.55,233.00
           M 200.75,211.25 199.69,211.09 197.64,211.00  193.38,211.55 192.03,212.66
             190.68,213.75 190.00,215.26 190.00,217.17
             190.00,218.82 190.48,220.11 191.45,221.03
             192.42,221.96 193.99,222.64 196.17,223.08
             196.17,223.08 197.92,223.42 197.92,223.42
             199.37,223.68 200.41,224.07 201.05,224.59
             201.68,225.11 202.00,225.82 202.00,226.73
             202.00,227.78 201.55,228.59 200.64,229.16
             199.74,229.72 198.47,230.00 196.81,230.00
             195.72,230.00 194.60,229.92 193.47,229.75
             192.33,229.59 191.18,229.34 190.00,229.00
             190.00,229.00 190.00,232.00 190.00,232.00
             191.23,232.34 192.41,232.59 193.55,232.75
             194.69,232.92 195.77,233.00 196.80,233.00
             199.48,233.00 201.52,232.48 202.91,231.44
             204.30,230.40 205.00,228.86 205.00,226.83
             205.01,225.09 204.50,223.71 203.48,222.69
             202.47,221.66 200.91,220.94 198.78,220.53
             198.78,220.53 197.05,220.19 197.05,220.19
             195.49,219.90 194.43,219.54 193.86,219.11
             193.30,218.68 193.01,218.06 193.00,217.25
             193.00,216.21 193.43,215.41 194.30,214.84
             195.16,214.28 196.39,214.00 197.98,214.00
             198.91,214.00 199.86,214.09 200.84,214.25
             201.83,214.42 202.88,214.67 204.00,215.00
             204.00,215.00 204.00,212.00 204.00,212.00
             202.89,211.67 201.81,211.42 200.75,211.25" />
</svg>
